<?xml version="1.0" encoding="iso-8859-1"?>
<!-- Generator: Adobe Illustrator 19.0.0, SVG Export Plug-In . SVG Version: 6.00 Build 0)  -->
<svg version="1.1" id="Capa_1" xmlns="http://www.w3.org/2000/svg" xmlns:xlink="http://www.w3.org/1999/xlink" x="0px" y="0px"
	 viewBox="0 0 64.324 64.324" style="enable-background:new 0 0 64.324 64.324;" xml:space="preserve">
<g id="Bowling">
	<path d="M44.906,26.09c-0.604-2.014-0.921-4.099-0.942-6.202c0.016-0.071,0.025-0.146,0.025-0.222c0-1.896,0.26-3.78,0.773-5.598
		c0.127-0.445,0.192-0.906,0.192-1.371c0-2.738-2.228-4.965-4.965-4.965c-2.738,0-4.965,2.227-4.965,4.965
		c0,0.5,0.074,0.941,0.204,1.283c0.527,1.792,0.8,3.649,0.81,5.517c0.012,2.295-0.318,4.568-0.98,6.758l-1.163,3.852
		c-2.511,8.311-1.902,17.236,1.716,25.13c0.097,0.212,0.266,0.384,0.476,0.485c1.211,0.581,2.473,0.872,3.778,0.872
		c1.288,0,2.618-0.283,3.98-0.85c0.232-0.097,0.42-0.278,0.525-0.507c3.617-7.892,4.235-16.819,1.74-25.136L44.906,26.09z
		 M39.988,9.731c1.635,0,2.965,1.33,2.965,2.965c0,0.279-0.039,0.555-0.116,0.824c-0.542,1.924-0.828,3.912-0.848,5.913
		c-0.018,0.074-0.027,0.152-0.027,0.232c0,1.184,0.086,2.364,0.257,3.532h-4.441c0.178-1.226,0.264-2.467,0.258-3.713
		c-0.011-2.055-0.311-4.098-0.914-6.137c-0.067-0.181-0.1-0.394-0.1-0.651C37.023,11.062,38.353,9.731,39.988,9.731z M42.714,54.039
		c-1.956,0.734-3.743,0.743-5.44,0.025c-3.278-7.367-3.8-15.654-1.466-23.38l1.163-3.851c0.163-0.54,0.302-1.087,0.429-1.635h5.208
		c0.115,0.492,0.237,0.983,0.383,1.468l1.202,4.01C46.51,38.398,45.983,46.679,42.714,54.039z"/>
	<path d="M62.818,30.1l-1.204-4.01c-0.604-2.013-0.92-4.097-0.942-6.196c0.017-0.074,0.026-0.15,0.026-0.229
		c0-1.894,0.26-3.779,0.771-5.598c0.128-0.448,0.193-0.91,0.193-1.371c0-2.738-2.228-4.965-4.966-4.965
		c-2.738,0-4.965,2.227-4.965,4.965c0,0.5,0.074,0.941,0.204,1.283c0.528,1.792,0.8,3.648,0.81,5.517
		c0.012,2.292-0.318,4.565-0.981,6.758l-1.164,3.852c-2.51,8.314-1.9,17.239,1.718,25.13c0.098,0.212,0.266,0.384,0.476,0.485
		c1.211,0.581,2.473,0.872,3.777,0.872c1.288,0,2.618-0.283,3.979-0.85c0.232-0.097,0.42-0.278,0.525-0.507
		C64.693,47.343,65.312,38.417,62.818,30.1z M56.697,9.731c1.636,0,2.966,1.33,2.966,2.965c0,0.275-0.039,0.551-0.118,0.825
		c-0.541,1.923-0.825,3.909-0.846,5.906c-0.019,0.076-0.029,0.156-0.029,0.238c0,1.184,0.086,2.364,0.258,3.532h-4.441
		c0.178-1.227,0.264-2.467,0.258-3.712c-0.01-2.056-0.31-4.098-0.914-6.137c-0.067-0.181-0.1-0.394-0.1-0.651
		C53.731,11.062,55.062,9.731,56.697,9.731z M59.422,54.039c-1.955,0.733-3.741,0.742-5.438,0.025
		c-3.278-7.364-3.801-15.652-1.468-23.379l1.164-3.852c0.163-0.541,0.302-1.087,0.428-1.635h5.208
		c0.115,0.492,0.237,0.983,0.383,1.468l1.204,4.009C63.218,38.398,62.691,46.678,59.422,54.039z"/>
	<path d="M15,25.45c-8.271,0-15,6.729-15,15c0,8.271,6.729,15,15,15c8.271,0,15-6.729,15-15C30,32.179,23.271,25.45,15,25.45z
		 M15,53.45c-7.168,0-13-5.832-13-13c0-7.168,5.832-13,13-13c7.168,0,13,5.832,13,13C28,47.619,22.168,53.45,15,53.45z"/>
	<path d="M13.869,33.058c-0.39-1.45-1.885-2.312-3.336-1.925c-1.45,0.388-2.314,1.885-1.925,3.336
		c0.326,1.216,1.429,2.02,2.633,2.02c0.232,0,0.469-0.03,0.705-0.093C13.396,36.004,14.259,34.506,13.869,33.058z M11.427,34.464
		c-0.387,0.1-0.784-0.127-0.888-0.513c-0.103-0.386,0.126-0.783,0.511-0.887h0c0.063-0.017,0.125-0.025,0.187-0.025
		c0.32,0,0.613,0.214,0.7,0.537C12.042,33.962,11.812,34.36,11.427,34.464z"/>
	<path d="M16.258,40.879c1.45-0.389,2.314-1.885,1.926-3.336c-0.188-0.702-0.639-1.29-1.269-1.654
		c-0.63-0.364-1.365-0.461-2.067-0.272c-0.703,0.188-1.29,0.639-1.654,1.27c-0.364,0.631-0.46,1.365-0.272,2.066
		c0.325,1.216,1.429,2.021,2.632,2.021C15.786,40.973,16.023,40.942,16.258,40.879z M14.853,38.435
		c-0.05-0.186-0.024-0.381,0.073-0.548c0.097-0.168,0.253-0.288,0.439-0.338h0.001c0.062-0.017,0.124-0.025,0.188-0.025
		c0.125,0,0.249,0.033,0.361,0.098c0.168,0.097,0.288,0.254,0.338,0.439c0.103,0.386-0.127,0.784-0.512,0.888
		C15.354,39.05,14.956,38.821,14.853,38.435z"/>
	<path d="M15.914,34.505c0.42,0.242,0.886,0.366,1.358,0.366c0.236,0,0.475-0.031,0.709-0.094c0.703-0.188,1.29-0.639,1.654-1.27
		c0.364-0.63,0.461-1.364,0.272-2.066c-0.388-1.45-1.885-2.316-3.336-1.926h0c-0.702,0.188-1.29,0.639-1.654,1.269
		c-0.364,0.631-0.461,1.365-0.273,2.068C14.832,33.554,15.283,34.141,15.914,34.505z M16.649,31.784
		c0.097-0.168,0.253-0.288,0.439-0.338c0.387-0.103,0.784,0.127,0.887,0.512c0.05,0.186,0.024,0.381-0.073,0.549
		c-0.097,0.168-0.253,0.288-0.44,0.338c-0.186,0.051-0.381,0.024-0.549-0.073c-0.168-0.097-0.288-0.253-0.338-0.439
		C16.526,32.147,16.552,31.952,16.649,31.784z"/>
	<path d="M14.973,50.182c-0.552,0.015-0.987,0.475-0.972,1.027c0.015,0.543,0.46,0.973,0.999,0.973c0.009,0,0.018,0,0.028,0
		c4.963-0.137,9.007-2.952,10.817-7.53c0.203-0.513-0.048-1.094-0.562-1.297c-0.514-0.204-1.095,0.048-1.297,0.562
		C21.813,49.406,16.958,50.127,14.973,50.182z"/>
</g>
<g>
</g>
<g>
</g>
<g>
</g>
<g>
</g>
<g>
</g>
<g>
</g>
<g>
</g>
<g>
</g>
<g>
</g>
<g>
</g>
<g>
</g>
<g>
</g>
<g>
</g>
<g>
</g>
<g>
</g>
</svg>
