<?xml version="1.0" encoding="iso-8859-1"?>
<!-- Generator: Adobe Illustrator 19.0.0, SVG Export Plug-In . SVG Version: 6.00 Build 0)  -->
<svg version="1.1" id="Capa_1" xmlns="http://www.w3.org/2000/svg" xmlns:xlink="http://www.w3.org/1999/xlink" x="0px" y="0px"
	 viewBox="0 0 64 64" style="enable-background:new 0 0 64 64;" xml:space="preserve">
<g id="Sail">
	<path d="M63.641,55.036c-4.662-3.893-9.404-3.884-13.686,0.002c-2.626,2.212-5.187,2.88-7.77,1.996
		C51.61,54.255,57.8,47.666,57.8,40.152c0-0.317-0.15-0.615-0.404-0.803c-0.255-0.189-0.586-0.245-0.886-0.154
		c-4.284,1.301-13.084,3.483-23.89,3.483s-19.606-2.182-23.89-3.483C8.43,39.103,8.1,39.159,7.845,39.348
		c-0.254,0.188-0.404,0.486-0.404,0.803c0,7.359,6.017,13.892,15.183,16.749c-2.89,1.583-5.521,0.968-8.615-1.892
		C9.263,51.373,4.8,51.381,0.364,55.031c-0.426,0.351-0.487,0.981-0.137,1.408c0.352,0.426,0.98,0.488,1.408,0.137
		c3.709-3.054,7.151-3.048,11.085-0.039c2.335,2.162,4.598,3.239,6.863,3.239c1.947,0,3.896-0.8,5.895-2.389
		c0.104-0.057,0.194-0.135,0.272-0.226c0.223-0.185,0.447-0.371,0.671-0.576c3.627-2.88,7.284-2.873,11.128-0.023
		c4.44,3.807,9.176,3.809,13.722-0.019c3.612-3.281,7.136-3.272,11.088,0.027c0.424,0.355,1.056,0.297,1.408-0.126
		C64.121,56.02,64.064,55.39,63.641,55.036z M25.126,55.064c-0.136,0.124-0.27,0.234-0.404,0.349
		c-8.549-2.179-14.452-7.62-15.201-13.904c4.747,1.336,13.084,3.168,23.1,3.168c10.017,0,18.354-1.832,23.101-3.168
		c-0.769,6.537-7.05,12.117-16.114,14.131l0,0c-0.27-0.198-0.54-0.409-0.81-0.641C34.132,51.539,29.552,51.545,25.126,55.064z"/>
	<path d="M28.639,39.177c0.159,0.297,0.458,0.494,0.794,0.523c1.601,0.14,3.192,0.21,4.774,0.21c5.734,0,11.338-0.917,16.714-2.739
		c0.506-0.172,0.788-0.711,0.64-1.225C48.313,24.698,41.321,14.405,30.185,4.477c-0.332-0.297-0.821-0.337-1.2-0.099
		c-0.377,0.239-0.55,0.699-0.424,1.127c3.924,13.356,3.954,25.588,0.08,32.721C28.48,38.522,28.48,38.88,28.639,39.177z
		 M31.394,8.31c9.088,8.666,14.985,17.62,17.969,27.267c-5.865,1.863-12.007,2.615-18.291,2.238
		C34.211,30.779,34.32,20.06,31.394,8.31z"/>
	<path d="M37.815,34.875c0.125,0.053,0.256,0.078,0.385,0.078c0.391,0,0.763-0.231,0.923-0.615c1.408-3.375,1.417-7.812,0.022-11.87
		c-0.179-0.522-0.743-0.803-1.271-0.621c-0.522,0.18-0.8,0.748-0.62,1.271c1.239,3.608,1.248,7.515,0.022,10.45
		C37.064,34.077,37.306,34.662,37.815,34.875z"/>
</g>
<g>
</g>
<g>
</g>
<g>
</g>
<g>
</g>
<g>
</g>
<g>
</g>
<g>
</g>
<g>
</g>
<g>
</g>
<g>
</g>
<g>
</g>
<g>
</g>
<g>
</g>
<g>
</g>
<g>
</g>
</svg>
